<?xml version="1.0" encoding="utf-8"?>
<!-- Generator: Adobe Illustrator 23.0.3, SVG Export Plug-In . SVG Version: 6.00 Build 0)  -->
<svg version="1.1" id="Layer_1" xmlns="http://www.w3.org/2000/svg" xmlns:xlink="http://www.w3.org/1999/xlink" x="0px" y="0px"
	 viewBox="0 0 612 792" style="enable-background:new 0 0 612 792;" xml:space="preserve">
<style type="text/css">
	.st0{fill:#FFFFFF;}
	.st1{fill:#DDDEE3;}
	.st2{fill:#1F2349;}
	.st3{fill:#26294F;}
</style>
<g>
	<g>
		<path class="st0" d="M13.04,375c0-77.95,0-155.9,0-233.92c190.85,0,381.74,0,572.79,0c0,77.92,0,155.92,0,233.92
			C394.96,375,204.02,375,13.04,375z M193.67,277.04c0.85,15.61-1.68,12.6,13.63,16.95c2.4,0.68,4.87,1.13,7.33,1.53
			c9.91,1.59,19.56,1.11,28.76-3.45c10.35-5.13,15.31-13.74,15.36-24.93c0.05-11.42-6.76-18.47-16.8-22.52
			c-6.63-2.67-13.65-4.38-20.25-7.11c-3.58-1.48-7.2-3.67-9.84-6.46c-5.32-5.63-4.71-15.61,0.61-20.42
			c9.83-8.89,29.37-3.81,33.27,8.66c0.45,1.43,0.54,3.16,1.43,4.22c1,1.2,2.69,2.36,4.14,2.44c0.78,0.04,2.35-2.17,2.42-3.43
			c0.28-5.15,0.45-10.35-0.06-15.47c-0.18-1.76-2.26-4.5-3.81-4.75c-8.98-1.48-18.11-3.53-27.11-3.18
			c-17.77,0.69-29.92,16.91-25.87,33.03c2.51,9.99,9.95,14.96,19,18.11c6.44,2.24,13.12,3.92,19.35,6.63
			c8.23,3.59,11.63,10.11,10.39,17.94c-1.2,7.53-6.36,12.34-15.11,13.68c-8.14,1.25-15.38-1.64-22.47-5.23
			c-5.08-2.57-5.27-7.74-6.99-12.13c-0.36-0.93-0.38-2.2-1.04-2.77c-1.24-1.06-2.82-1.73-4.26-2.56c-0.7,1.24-1.82,2.43-2,3.74
			C193.44,272.01,193.67,274.54,193.67,277.04z M575.12,214.45c-0.3-12.68,2.67-11.22-11.58-14.22c-9.83-2.07-19.87-3.1-29.42,1.44
			c-10.32,4.91-16.43,12.81-16.38,24.67c0.05,10.55,5.96,18.51,16.99,22.88c2.93,1.16,6.06,1.85,8.99,3.02
			c5.84,2.33,12.15,4.02,17.28,7.45c9.78,6.52,8.1,21.78-2.52,26.86c-7.8,3.73-15.5,2.21-23.27-0.55
			c-6.91-2.45-11.06-6.82-12.48-14.12c-0.51-2.63-0.8-6.76-5.17-5.94c-4.5,0.85-2.53,4.86-2.46,7.43
			c0.46,18.32,0.62,18.45,18.93,21.82c11.05,2.03,21.96,1.99,32.05-3.76c9.67-5.51,14.4-13.96,14.06-25.18
			c-0.31-10.46-6.22-16.93-15.22-20.92c-5.01-2.22-10.32-3.73-15.46-5.65c-4.04-1.51-8.31-2.67-12.01-4.81
			c-7.61-4.41-10.23-15.9-5.21-22.25c4.89-6.19,11.81-7.16,19.03-5.94c6.98,1.18,14.02,2.65,15.58,11.47
			c0.32,1.78,0.78,3.72,1.79,5.15c0.88,1.25,2.56,2.37,4.03,2.6c0.62,0.1,2.14-2.16,2.33-3.48
			C575.38,219.82,575.12,217.12,575.12,214.45z M408.55,286.9c-3.2,0.85-5.54,1.21-7.64,2.11c-1.31,0.56-2.28,1.94-3.41,2.95
			c1.4,0.77,2.78,2.17,4.2,2.21c8.49,0.21,17,0.21,25.49,0.01c1.45-0.03,2.86-1.37,4.3-2.11c-1.05-1.09-1.92-2.79-3.19-3.17
			c-4.3-1.27-6.45-4.13-7.96-8.17c-5.26-14.04-10.76-27.99-16.19-41.97c-4.7-12.12-9.35-24.25-14.2-36.31
			c-0.58-1.45-2.36-3.43-3.53-3.39c-1.55,0.05-3.37,1.59-4.45,2.97c-1.41,1.8-2.4,4.01-3.26,6.17
			c-9.37,23.52-18.72,47.04-27.95,70.61c-1.82,4.64-3.56,8.95-9.16,10.23c-1,0.23-1.63,2.08-2.44,3.18c1.16,0.68,2.3,1.89,3.48,1.94
			c5.49,0.22,11,0.3,16.49,0.04c2.57-0.13,7.19-0.93,7.28-1.82c0.46-4.28-3.9-3.57-6.42-4.39c-3.08-1-4.02-2.23-2.78-5.4
			c2.44-6.2,4.36-12.61,7.01-18.71c0.71-1.64,3.22-3.46,4.97-3.54c8.48-0.37,16.99-0.28,25.49-0.06c1.52,0.04,3.85,1.09,4.35,2.28
			C402.34,270.34,405.24,278.29,408.55,286.9z M307.17,200.73c-11.83,0-23.66,0.09-35.48-0.05c-3.6-0.04-5.16,1.16-5,4.89
			c0.21,4.82-0.16,9.67,0.16,14.48c0.11,1.58,1.58,3.07,2.42,4.61c1.35-1.15,3.27-2.03,3.95-3.49c1.92-4.13,2.17-10.16,5.26-12.3
			c3.21-2.23,8.97-0.79,13.62-0.95c0.83-0.03,1.67,0.07,2.5-0.01c4.22-0.43,5.52,1.61,5.42,5.61c-0.2,7.66-0.05,15.33-0.05,22.99
			c0,14.99-0.06,29.99,0.03,44.98c0.02,3.74-1.14,6.1-5.14,6.54c-1.31,0.14-2.75,0.32-3.86,0.96c-1.41,0.8-2.54,2.08-3.79,3.16
			c1.46,0.71,2.91,2.01,4.38,2.04c9.16,0.19,18.33,0.24,27.48,0.02c2.53-0.06,7.16-1.07,7.21-1.88c0.28-4.39-4.05-3.3-6.58-4.06
			c-3.05-0.91-5.77-1.47-5.77-5.53c0.05-23.49,0.03-46.98,0.01-70.47c0-2.86,1.22-4.34,4.18-4.32c5,0.04,10,0.07,14.99-0.02
			c3.07-0.06,4.48,1.48,5.12,4.31c0.74,3.24,1.46,6.55,2.76,9.58c0.54,1.27,2.57,1.9,3.92,2.81c0.79-1.25,2.18-2.46,2.25-3.74
			c0.27-4.98-0.06-10,0.18-14.99c0.18-3.88-1.24-5.3-5.18-5.24C330.49,200.84,318.83,200.72,307.17,200.73z M465.65,200.72
			c-11.83,0-23.66,0.08-35.48-0.05c-3.47-0.04-5.35,0.94-5.23,4.75c0.15,5.16-0.11,10.34,0.18,15.48c0.07,1.27,1.75,3.57,2.41,3.47
			c1.46-0.21,3.4-1.36,3.96-2.64c1.32-3.03,2.07-6.32,2.8-9.57c0.71-3.16,2.52-4.39,5.68-4.29c4.16,0.14,8.35,0.27,12.49-0.04
			c4.7-0.35,6.41,1.24,6.36,6.17c-0.24,20.49-0.1,40.98-0.1,61.47c0,10.37-0.02,10.3-10.01,13.67c-1.25,0.42-2.08,2.08-3.1,3.16
			c1.15,0.65,2.3,1.85,3.47,1.86c10.66,0.15,21.32,0.16,31.98,0c1.33-0.02,2.64-1.26,3.96-1.93c-1.17-1.11-2.23-2.42-3.56-3.27
			c-0.92-0.59-2.22-0.67-3.37-0.8c-4.5-0.52-6.12-2.98-5.98-7.48c0.26-7.99,0.07-15.99,0.07-23.99c0-14.49-0.07-28.99,0.1-43.48
			c0.02-1.69,1.24-4.78,2.03-4.82c6.62-0.35,13.51-1.11,19.79,0.43c2.29,0.56,3.16,7,4.65,10.77c0.24,0.62,0.16,1.49,0.58,1.88
			c1.19,1.14,2.55,2.1,3.84,3.13c0.96-1.3,2.63-2.55,2.74-3.91c0.36-4.64-0.03-9.33,0.22-13.98c0.24-4.43-1.25-6.22-5.97-6.1
			C488.64,200.92,477.14,200.72,465.65,200.72z M38.07,204.07c4.64-5.13,9.59-9.87,13.65-15.27c8.35-11.11,9.13-23.33,1.89-32.22
			c-2.18-2.69-6.04-4.95-9.44-5.53c-8.42-1.43-16.11,1.54-22.92,6.48c-2.89,2.1-4.19,4.89-2.5,8.72c1.15,2.6,2.08,5.56,2.09,8.37
			c0.13,18.28-0.09,36.56-0.05,54.84c0.01,5.61,2.82,7.3,7.55,4.27c1.8-1.15,3.14-4.02,3.44-6.27c0.54-4.13,0.15-8.38,0.15-13.05
			c2.33,0.53,4.36,0.68,6.13,1.43c8.25,3.49,16.41,7.17,24.64,10.7c1.57,0.67,3.3,0.95,4.96,1.41c0.32-1.81,1.19-3.76,0.8-5.4
			c-0.38-1.61-1.75-3.46-3.21-4.25C56.39,213.45,47.36,208.89,38.07,204.07z M121.91,221.72c1.21,4.17,1.88,7.45,3.12,10.49
			c1.19,2.92,3.31,3.25,6.01,1.35c3.91-2.75,3.11-6.65,2.94-10.43c-0.55-12.62-1.33-25.24-1.63-37.87
			c-0.17-7.14,0.69-14.3,0.5-21.43c-0.05-1.94-1.88-4.85-3.58-5.49c-2.89-1.08-5.04,1.17-5.64,4.14
			c-1.02,5.04-2.21,10.11-2.54,15.21c-0.27,4.21-1.51,5.37-5.79,4.93c-2.6-0.27-6.16,0.67-7.95,2.43c-2.72,2.69-5.08,6.31-6.19,9.97
			c-3.09,10.17-6.17,20.48-2.56,31.29c1.58,4.73,4.56,7.8,9.64,8.1c4.86,0.28,8.06-2.61,10.44-6.5
			C119.79,226.12,120.65,224.18,121.91,221.72z M174.26,193.55c-0.04-0.76-0.01-2.61-0.28-4.41c-0.7-4.61-1.94-8.86-7.41-10.02
			c-5.49-1.17-11.76,0.59-14.06,5.16c-7.28,14.47-8.71,29.68-2.64,44.8c3.52,8.77,14.02,10.95,21.35,5.12
			c7.32-5.83,10.67-13.85,10.95-23.1c0.04-1.2-1.09-2.43-1.68-3.65c-1.21,0.74-2.77,1.24-3.54,2.3c-0.82,1.13-0.78,2.84-1.29,4.23
			c-1.54,4.18-2.72,8.58-4.87,12.43c-2.34,4.21-5.1,4.21-8.37,0.67c-4.02-4.36-4.52-9.79-4.52-15.39c0-3.09,1.12-4.4,4.37-4.58
			C171.93,206.58,174.32,203.95,174.26,193.55z M70.79,208.68c0.42,8.23,0.76,14.38,1.02,20.53c0.14,3.35,2.18,4.87,4.9,3.6
			c3.18-1.49,6.22-3.41,6.27-8.05c0.13-12.29,0.66-24.57,1.19-36.85c0.14-3.36-0.11-6.19-4.23-6.44c-3.54-0.21-6.77,0.44-7.18,4.9
			C72.02,194.47,71.33,202.59,70.79,208.68z M85.26,162.88c-0.16-5.21-2.24-7.84-6.96-7.84c-3.98,0-7.62,4.17-7.38,8.44
			c0.23,4.02,3.51,6.85,7.83,6.56C82.55,169.78,85.72,168.68,85.26,162.88z"/>
		<path d="M193.67,277.04c0-2.5-0.23-5.03,0.09-7.48c0.17-1.31,1.3-2.5,2-3.74c1.44,0.83,3.02,1.49,4.26,2.56
			c0.65,0.56,0.67,1.84,1.04,2.77c1.72,4.39,1.91,9.57,6.99,12.13c7.09,3.58,14.33,6.48,22.47,5.23
			c8.75-1.34,13.92-6.15,15.11-13.68c1.24-7.83-2.16-14.35-10.39-17.94c-6.23-2.72-12.91-4.39-19.35-6.63
			c-9.05-3.15-16.49-8.12-19-18.11c-4.05-16.12,8.1-32.34,25.87-33.03c9-0.35,18.13,1.7,27.11,3.18c1.55,0.25,3.63,2.99,3.81,4.75
			c0.51,5.11,0.34,10.32,0.06,15.47c-0.07,1.26-1.64,3.48-2.42,3.43c-1.45-0.08-3.14-1.24-4.14-2.44c-0.89-1.06-0.98-2.78-1.43-4.22
			c-3.9-12.47-23.43-17.56-33.27-8.66c-5.32,4.81-5.93,14.79-0.61,20.42c2.63,2.79,6.26,4.98,9.84,6.46
			c6.6,2.73,13.62,4.44,20.25,7.11c10.04,4.05,16.85,11.09,16.8,22.52c-0.05,11.19-5.01,19.79-15.36,24.93
			c-9.21,4.57-18.85,5.05-28.76,3.45c-2.46-0.4-4.94-0.84-7.33-1.53C191.99,289.64,194.52,292.64,193.67,277.04z"/>
		<path d="M575.12,214.45c0,2.66,0.27,5.37-0.11,7.98c-0.19,1.32-1.71,3.58-2.33,3.48c-1.47-0.23-3.14-1.34-4.03-2.6
			c-1.01-1.43-1.47-3.37-1.79-5.15c-1.56-8.81-8.6-10.29-15.58-11.47c-7.22-1.22-14.14-0.25-19.03,5.94
			c-5.02,6.35-2.39,17.85,5.21,22.25c3.69,2.14,7.96,3.3,12.01,4.81c5.14,1.91,10.46,3.43,15.46,5.65
			c9,3.98,14.91,10.45,15.22,20.92c0.34,11.22-4.4,19.67-14.06,25.18c-10.09,5.75-21,5.79-32.05,3.76
			c-18.31-3.37-18.47-3.49-18.93-21.82c-0.06-2.56-2.03-6.58,2.46-7.43c4.37-0.83,4.66,3.3,5.17,5.94
			c1.42,7.3,5.57,11.67,12.48,14.12c7.77,2.76,15.47,4.28,23.27,0.55c10.61-5.08,12.29-20.34,2.52-26.86
			c-5.14-3.43-11.44-5.12-17.28-7.45c-2.93-1.17-6.05-1.86-8.99-3.02c-11.04-4.37-16.95-12.34-16.99-22.88
			c-0.06-11.85,6.06-19.76,16.38-24.67c9.54-4.54,19.59-3.51,29.42-1.44C577.79,203.23,574.82,201.77,575.12,214.45z"/>
		<path d="M408.55,286.9c-3.31-8.61-6.21-16.56-9.51-24.34c-0.51-1.2-2.84-2.24-4.35-2.28c-8.49-0.22-17-0.31-25.49,0.06
			c-1.75,0.08-4.26,1.89-4.97,3.54c-2.65,6.1-4.56,12.52-7.01,18.71c-1.25,3.16-0.31,4.39,2.78,5.4c2.53,0.82,6.88,0.11,6.42,4.39
			c-0.1,0.89-4.71,1.7-7.28,1.82c-5.49,0.27-11,0.18-16.49-0.04c-1.18-0.05-2.32-1.26-3.48-1.94c0.8-1.1,1.43-2.96,2.44-3.18
			c5.6-1.27,7.34-5.59,9.16-10.23c9.23-23.57,18.58-47.09,27.95-70.61c0.86-2.16,1.84-4.37,3.26-6.17c1.08-1.38,2.91-2.92,4.45-2.97
			c1.16-0.04,2.94,1.94,3.53,3.39c4.86,12.05,9.5,24.19,14.2,36.31c5.42,13.98,10.92,27.93,16.19,41.97
			c1.51,4.04,3.66,6.9,7.96,8.17c1.26,0.37,2.14,2.08,3.19,3.17c-1.43,0.74-2.85,2.07-4.3,2.11c-8.49,0.2-17,0.2-25.49-0.01
			c-1.42-0.03-2.8-1.44-4.2-2.21c1.12-1.01,2.09-2.39,3.41-2.95C403.01,288.11,405.34,287.75,408.55,286.9z M395.36,252.49
			c-4.61-11.87-8.95-23.03-13.75-35.39c-4.65,12.41-8.84,23.61-13.25,35.39C377.8,252.49,386.05,252.49,395.36,252.49z"/>
		<path d="M307.17,200.73c11.66,0,23.33,0.12,34.98-0.07c3.94-0.06,5.36,1.35,5.18,5.24c-0.23,4.99,0.09,10-0.18,14.99
			c-0.07,1.28-1.47,2.5-2.25,3.74c-1.35-0.92-3.38-1.55-3.92-2.81c-1.3-3.03-2.03-6.34-2.76-9.58c-0.64-2.84-2.05-4.37-5.12-4.31
			c-5,0.09-10,0.06-14.99,0.02c-2.96-0.02-4.18,1.45-4.18,4.32c0.02,23.49,0.04,46.98-0.01,70.47c-0.01,4.06,2.72,4.62,5.77,5.53
			c2.53,0.76,6.87-0.33,6.58,4.06c-0.05,0.81-4.68,1.82-7.21,1.88c-9.16,0.22-18.33,0.18-27.48-0.02c-1.47-0.03-2.92-1.33-4.38-2.04
			c1.25-1.07,2.38-2.36,3.79-3.16c1.11-0.63,2.54-0.81,3.86-0.96c4-0.43,5.16-2.8,5.14-6.54c-0.1-14.99-0.03-29.99-0.03-44.98
			c0-7.66-0.14-15.33,0.05-22.99c0.1-4-1.2-6.04-5.42-5.61c-0.82,0.08-1.67-0.02-2.5,0.01c-4.65,0.15-10.4-1.28-13.62,0.95
			c-3.09,2.14-3.34,8.18-5.26,12.3c-0.68,1.46-2.6,2.34-3.95,3.49c-0.85-1.53-2.32-3.03-2.42-4.61c-0.32-4.81,0.04-9.66-0.16-14.48
			c-0.16-3.73,1.4-4.93,5-4.89C283.51,200.81,295.34,200.73,307.17,200.73z"/>
		<path d="M465.65,200.72c11.49,0,22.99,0.2,34.48-0.1c4.72-0.12,6.21,1.67,5.97,6.1c-0.25,4.65,0.13,9.34-0.22,13.98
			c-0.1,1.37-1.78,2.61-2.74,3.91c-1.29-1.03-2.66-1.99-3.84-3.13c-0.41-0.4-0.33-1.27-0.58-1.88c-1.49-3.77-2.35-10.21-4.65-10.77
			c-6.27-1.54-13.17-0.77-19.79-0.43c-0.79,0.04-2.01,3.13-2.03,4.82c-0.16,14.49-0.1,28.98-0.1,43.48c0,8,0.19,16-0.07,23.99
			c-0.15,4.5,1.48,6.95,5.98,7.48c1.15,0.13,2.45,0.21,3.37,0.8c1.34,0.86,2.39,2.16,3.56,3.27c-1.32,0.67-2.63,1.91-3.96,1.93
			c-10.66,0.16-21.32,0.15-31.98,0c-1.16-0.02-2.31-1.21-3.47-1.86c1.02-1.08,1.86-2.74,3.1-3.16c9.99-3.38,10.01-3.31,10.01-13.67
			c0-20.49-0.14-40.98,0.1-61.47c0.06-4.93-1.66-6.52-6.36-6.17c-4.14,0.31-8.33,0.17-12.49,0.04c-3.17-0.1-4.97,1.13-5.68,4.29
			c-0.73,3.24-1.49,6.54-2.8,9.57c-0.56,1.28-2.5,2.43-3.96,2.64c-0.66,0.1-2.34-2.2-2.41-3.47c-0.29-5.15-0.03-10.32-0.18-15.48
			c-0.11-3.81,1.76-4.79,5.23-4.75C441.99,200.8,453.82,200.72,465.65,200.72z"/>
		<path d="M38.07,204.07c9.29,4.81,18.31,9.38,27.19,14.21c1.46,0.79,2.83,2.65,3.21,4.25c0.39,1.64-0.48,3.59-0.8,5.4
			c-1.66-0.46-3.39-0.74-4.96-1.41c-8.23-3.53-16.39-7.21-24.64-10.7c-1.78-0.75-3.8-0.91-6.13-1.43c0,4.68,0.39,8.92-0.15,13.05
			c-0.3,2.25-1.64,5.12-3.44,6.27c-4.74,3.03-7.54,1.35-7.55-4.27c-0.04-18.28,0.17-36.56,0.05-54.84
			c-0.02-2.81-0.94-5.76-2.09-8.37c-1.69-3.82-0.39-6.62,2.5-8.72c6.81-4.94,14.5-7.91,22.92-6.48c3.41,0.58,7.26,2.84,9.44,5.53
			c7.23,8.9,6.45,21.11-1.89,32.22C47.66,194.2,42.71,198.94,38.07,204.07z M32.51,193.66c6.87-6.96,12.74-13.33,16.22-21.53
			c0.7-1.64,1.39-3.64,1.06-5.26c-0.33-1.59-1.94-4.12-3.03-4.15c-4.07-0.08-8.4,0.05-12.09,1.5c-1.31,0.51-1.15,5-1.48,7.7
			c-0.34,2.79-0.58,5.61-0.65,8.42C32.43,184.39,32.51,188.44,32.51,193.66z"/>
		<path d="M121.91,221.72c-1.27,2.46-2.13,4.4-3.23,6.2c-2.38,3.88-5.58,6.78-10.44,6.5c-5.08-0.29-8.06-3.36-9.64-8.1
			c-3.61-10.8-0.52-21.12,2.56-31.29c1.11-3.65,3.46-7.28,6.19-9.97c1.78-1.76,5.34-2.7,7.95-2.43c4.27,0.44,5.52-0.72,5.79-4.93
			c0.33-5.11,1.52-10.17,2.54-15.21c0.6-2.97,2.76-5.22,5.64-4.14c1.7,0.63,3.53,3.55,3.58,5.49c0.2,7.13-0.67,14.29-0.5,21.43
			c0.3,12.63,1.09,25.24,1.63,37.87c0.16,3.77,0.97,7.68-2.94,10.43c-2.7,1.9-4.82,1.56-6.01-1.35
			C123.8,229.17,123.12,225.9,121.91,221.72z M111.06,227.64c6.13-11.39,7.46-23.07,8.79-34.71c0.12-1.07-1.17-3.04-2.14-3.27
			c-0.93-0.23-3,1.01-3.32,2c-1.91,5.97-4.14,11.96-4.94,18.12C108.74,215.29,106.95,221.24,111.06,227.64z"/>
		<path d="M174.26,193.55c0.06,10.41-2.33,13.03-11.99,13.56c-3.25,0.18-4.37,1.49-4.37,4.58c0.01,5.6,0.5,11.03,4.52,15.39
			c3.27,3.54,6.02,3.54,8.37-0.67c2.15-3.85,3.33-8.25,4.87-12.43c0.51-1.39,0.48-3.1,1.29-4.23c0.77-1.06,2.33-1.56,3.54-2.3
			c0.59,1.22,1.71,2.45,1.68,3.65c-0.29,9.25-3.63,17.28-10.95,23.1c-7.33,5.84-17.83,3.65-21.35-5.12
			c-6.07-15.13-4.64-30.33,2.64-44.8c2.3-4.57,8.57-6.33,14.06-5.16c5.46,1.16,6.7,5.42,7.41,10.02
			C174.25,190.94,174.22,192.79,174.26,193.55z M165.11,186.12c-0.77-0.01-1.53-0.01-2.3-0.02c-1.26,3.84-2.81,7.63-3.61,11.57
			c-0.22,1.06,2.09,3.81,2.77,3.66c2.01-0.45,5.42-2.01,5.38-3.03C167.2,194.22,165.95,190.18,165.11,186.12z"/>
		<path d="M70.79,208.68c0.53-6.09,1.22-14.2,1.97-22.31c0.41-4.46,3.65-5.11,7.18-4.9c4.11,0.25,4.37,3.08,4.23,6.44
			c-0.53,12.28-1.05,24.57-1.19,36.85c-0.05,4.65-3.1,6.56-6.27,8.05c-2.72,1.27-4.76-0.25-4.9-3.6
			C71.56,223.05,71.21,216.91,70.79,208.68z"/>
		<path d="M85.26,162.88c0.46,5.8-2.71,6.91-6.5,7.16c-4.32,0.29-7.6-2.54-7.83-6.56c-0.24-4.28,3.4-8.45,7.38-8.44
			C83.02,155.04,85.1,157.67,85.26,162.88z"/>
		<path class="st0" d="M395.36,252.49c-9.31,0-17.56,0-26.99,0c4.41-11.78,8.6-22.98,13.25-35.39
			C386.41,229.46,390.74,240.62,395.36,252.49z"/>
		<path class="st0" d="M32.51,193.66c0-5.22-0.08-9.27,0.03-13.32c0.07-2.81,0.31-5.63,0.65-8.42c0.33-2.7,0.17-7.18,1.48-7.7
			c3.69-1.45,8.02-1.58,12.09-1.5c1.09,0.02,2.7,2.55,3.03,4.15c0.33,1.62-0.36,3.62-1.06,5.26
			C45.25,180.33,39.38,186.71,32.51,193.66z"/>
		<path class="st0" d="M111.06,227.64c-4.11-6.4-2.32-12.35-1.61-17.87c0.8-6.16,3.03-12.15,4.94-18.12c0.32-0.99,2.39-2.23,3.32-2
			c0.96,0.24,2.26,2.21,2.14,3.27C118.52,204.58,117.19,216.26,111.06,227.64z"/>
		<path class="st0" d="M165.11,186.12c0.84,4.06,2.09,8.1,2.24,12.19c0.04,1.02-3.37,2.58-5.38,3.03c-0.68,0.15-2.98-2.6-2.77-3.66
			c0.8-3.94,2.34-7.73,3.61-11.57C163.58,186.11,164.35,186.11,165.11,186.12z"/>
	</g>
</g>
<g>
	<g>
		<path d="M181.9,269.46c0,3.66,0.04,7.31-0.01,10.97c-0.06,4.81-2.3,8.32-6.72,10.17c-3.6,1.52-7.36,2.68-11.02,4.06
			c-0.39,0.15-0.74,0.63-0.93,1.04c-3.21,6.74-8.51,10.43-15.99,10.37c-7.32-0.06-12.55-3.73-15.58-10.4c-0.46-1-1.11-1.07-2-1.07
			c-8.89,0.01-17.77,0.01-26.66,0.01c-15.64,0-31.27,0.02-46.91-0.03c-1.36,0-2.01,0.4-2.63,1.67c-3.18,6.43-8.44,9.88-15.63,9.82
			c-7.18-0.06-12.38-3.59-15.47-10.06c-0.54-1.13-1.13-1.45-2.28-1.42c-2.53,0.06-5.06,0.05-7.59,0.01
			c-2.3-0.04-2.99-0.78-2.99-3.06c0-5.79,0.07-11.59-0.02-17.38c-0.08-4.77,2.14-8.26,6.03-10.58c7.66-4.58,16-7.36,24.85-8.5
			c2.5-0.32,5.04-0.38,7.55-0.68c0.85-0.1,1.72-0.48,2.48-0.89c6.92-3.74,13.75-7.61,21.17-10.35c14.28-5.28,29.04-6.78,44.12-5.75
			c15.59,1.06,30.01,5.82,43.48,13.69c1.55,0.91,3.65,0.93,5.52,1.22c4.78,0.73,9.57,1.38,14.35,2.07c2,0.29,2.85,1.24,2.86,3.27
			C181.92,261.58,181.9,265.52,181.9,269.46z M101.2,288.85c0-9.63,0-19.14,0-28.77c-0.69,0-1.24,0-1.8,0
			c-16.76,0-33.52-0.03-50.28,0.01c-10.67,0.02-20.65,2.74-29.99,7.87c-2.89,1.59-4.31,3.99-4.29,7.28c0.01,4.05,0,8.1,0.01,12.15
			c0,0.48,0.07,0.97,0.11,1.43c1.99,0,3.81,0,5.62,0c0.7-11.18,9.25-16.99,16.99-17.13c3.94-0.07,7.54,1.06,10.7,3.46
			c4.5,3.41,6.67,8.06,6.96,13.71C70.59,288.85,85.81,288.85,101.2,288.85z M107.11,260.07c0,9.71,0,19.18,0,28.7
			c0.37,0.06,0.63,0.14,0.9,0.14c6.97,0.01,13.94-0.02,20.91,0.03c1.23,0.01,1.3-0.62,1.37-1.56c0.61-8.3,7.23-14.81,15.86-15.66
			c7.88-0.77,15.7,4.71,17.81,12.53c0.38,1.4,0.56,2.84,0.87,4.46c3.01-1.25,6.06-2.29,8.85-3.8c1.11-0.6,2.28-2.2,2.37-3.41
			c0.29-4.18,0.11-8.39,0.11-12.78c-2.85,0-5.58,0-8.41,0c0-1.95,0-3.71,0-5.67c2.84,0,5.57,0,8.36,0c0-1.23,0-2.26,0-3.39
			c-3.87-0.55-7.64-1.17-11.43-1.61c-3.99-0.47-7.86-1.1-11.22-3.58c-1.2-0.89-2.68-1.4-3.99-2.16c-0.87-0.5-1.46-0.42-2.18,0.34
			c-1.89,2-3.91,3.88-5.81,5.88c-1.04,1.1-2.19,1.57-3.72,1.56c-8.77-0.05-17.54-0.02-26.31-0.02
			C110.06,260.07,108.66,260.07,107.11,260.07z M37.95,300.47c6.36,0.01,11.61-5.26,11.58-11.61c-0.03-6.28-5.21-11.48-11.51-11.54
			c-6.32-0.06-11.63,5.2-11.67,11.55C26.32,295.2,31.59,300.47,37.95,300.47z M135.86,288.74c-0.12,6.38,4.98,11.62,11.41,11.73
			c6.26,0.11,11.57-5.03,11.69-11.32c0.13-6.37-4.97-11.68-11.36-11.83C141.26,277.18,135.98,282.31,135.86,288.74z M107.14,242.89
			c0,3.8,0,7.58,0,11.35c0.24,0.06,0.4,0.14,0.56,0.14c9.67,0.01,19.34,0.02,29.01,0c0.41,0,0.93-0.12,1.22-0.38
			c1.58-1.43,3.09-2.92,4.67-4.43C137.05,245.93,117.71,242.3,107.14,242.89z M101.24,242.91c-14.3,0.73-27.53,4.39-39.84,11.37
			c13.27,0,26.54,0,39.84,0C101.24,250.48,101.24,246.79,101.24,242.91z"/>
		<path d="M92.54,263.19c0,1.79,0,3.51,0,5.54c-1.34,0-2.66,0-3.98,0c-2.02,0-4.05,0.05-6.06-0.04c-0.44-0.02-1.18-0.54-1.21-0.88
			c-0.13-1.49-0.06-3-0.06-4.62C85.08,263.19,88.76,263.19,92.54,263.19z"/>
	</g>
</g>
<g>
	<g>
		<path class="st1" d="M182.25,285.07l-0.14,0.02l-0.14-0.01c0-7.99,0-15.99,0-23.98c0.09-0.02,0.18-0.02,0.27,0.01
			C182.25,269.1,182.25,277.09,182.25,285.07z"/>
		<path class="st2" d="M181.98,261.1c0,7.99,0,15.99,0,23.98c-0.44,4.75-2.8,8.1-7.28,9.82c-3.49,1.34-7.04,2.53-10.54,3.87
			c-0.46,0.18-0.84,0.82-1.07,1.33c-4.58,9.9-16.66,13.21-25.6,6.98c-2.6-1.81-4.55-4.17-5.8-7.08c-0.38-0.88-0.77-1.3-1.81-1.3
			c-24.8,0.03-49.59,0.03-74.39,0c-0.92,0-1.38,0.28-1.77,1.12c-3.1,6.72-8.44,10.36-15.79,10.35c-7.35-0.01-12.68-3.65-15.76-10.39
			c-0.4-0.89-0.92-1.09-1.8-1.08c-2.59,0.05-5.17,0.05-7.76,0.01c-2.5-0.04-3.17-0.75-3.17-3.24c0-5.74,0.08-11.47-0.03-17.21
			c-0.09-4.84,2.14-8.36,6.08-10.72c7.5-4.49,15.67-7.22,24.32-8.43c2.67-0.37,5.38-0.42,8.05-0.73c0.85-0.1,1.69-0.5,2.48-0.89
			c6.89-3.37,13.6-7.2,20.7-10.08c12.72-5.16,26.13-6.66,39.82-6.29c16.92,0.46,32.67,4.89,47.23,13.47
			c2.17,1.28,4.48,1.34,6.77,1.71c4.71,0.76,9.44,1.41,14.18,2.05C180.72,258.59,181.69,259.44,181.98,261.1z M55.28,292.85
			c15.37,0,30.63,0,45.93,0c0-9.58,0-19.06,0-28.68c-0.39,0-0.71,0-1.04,0c-17.38,0-34.76-0.1-52.13,0.05
			c-10.35,0.09-20.05,2.9-29.09,7.97c-2.7,1.52-4.02,3.83-4.05,6.89c-0.03,2.31-0.01,4.61-0.01,6.92c0,2.29,0,4.58,0,6.84
			c2.04,0,3.87,0,5.69,0c0.74-11.34,9.22-16.89,16.75-17.14c4.19-0.14,7.99,1.09,11.29,3.69C52.93,282.79,55.01,287.37,55.28,292.85
			z M176.13,263.78c-3.84-0.56-7.6-1.19-11.39-1.62c-3.99-0.46-7.86-1.07-11.22-3.54c-1.25-0.92-2.79-1.44-4.14-2.24
			c-0.84-0.49-1.36-0.35-2.02,0.34c-1.94,2.03-3.99,3.96-5.93,5.99c-1.01,1.05-2.12,1.47-3.58,1.47
			c-9.61-0.05-19.23-0.02-28.84-0.02c-0.6,0-1.2,0-1.88,0c0,9.64,0,19.11,0,28.66c7.68,0,15.29,0,22.88,0
			c1.93-10.86,7.73-16.79,16.76-17.12c4-0.15,7.66,0.98,10.88,3.38c4.5,3.35,6.71,7.95,7.11,13.67c3.05-1.25,5.93-2.33,8.72-3.63
			c1.82-0.85,2.69-2.49,2.71-4.52c0.02-2.36,0.01-4.72,0.01-7.08c0-1.55,0-3.09,0-4.74c-2.99,0-5.73,0-8.54,0c0-1.94,0-3.76,0-5.76
			c2.87,0,5.65,0,8.48,0C176.13,265.9,176.13,264.96,176.13,263.78z M37.95,304.45c6.38,0.01,11.58-5.21,11.53-11.58
			c-0.05-6.29-5.24-11.45-11.52-11.46c-6.32-0.01-11.6,5.3-11.54,11.62C26.46,299.33,31.62,304.44,37.95,304.45z M135.91,293.04
			c0.04,6.34,5.14,11.41,11.49,11.41c6.38,0,11.57-5.21,11.53-11.58c-0.04-6.27-5.24-11.43-11.53-11.45
			C141.05,281.4,135.87,286.63,135.91,293.04z M107.12,258.24c0.2,0.08,0.3,0.15,0.4,0.15c9.77,0.01,19.54,0.02,29.31,0.02
			c0.31,0,0.71-0.05,0.92-0.24c1.63-1.48,3.22-3,5.04-4.71c-11.78-4.61-23.46-6.78-35.68-6.52
			C107.12,250.77,107.12,254.46,107.12,258.24z M61.03,258.27c13.6,0,26.89,0,40.13,0c0-3.78,0-7.51,0-11.25
			C86.95,247.71,73.73,251.41,61.03,258.27z"/>
		<path class="st3" d="M81.19,272.73c0-1.91,0-3.69,0-5.58c3.8,0,7.54,0,11.39,0c0,1.83,0,3.65,0,5.58
			C88.84,272.73,85.1,272.73,81.19,272.73z"/>
	</g>
</g>
</svg>
